<?xml version="1.0" encoding="utf-8"?>
<svg version="1.1" xmlns:xlink="http://www.w3.org/1999/xlink" width="318px" height="50px" xmlns="http://www.w3.org/2000/svg">
  <g transform="matrix(1 0 0 1 -632 -170 )">
    <path d="M 930.447836267491 170.5  C 930.447836267491 170.5  933.758679870082 170.760286446745  933.758679870082 170.760286446745  C 933.758679870082 170.760286446745  949.46971968651 195  949.46971968651 195  C 949.46971968651 195  933.758679870082 219.239713553255  933.758679870082 219.239713553255  C 933.758679870082 219.239713553255  930.447836267491 219.5  930.447836267491 219.5  C 930.447836267491 219.5  637 219.5  637 219.5  C 634.48 219.5  632.5 217.52  632.5 215  C 632.5 215  632.5 175  632.5 175  C 632.5 172.48  634.48 170.5  637 170.5  C 637 170.5  930.447836267491 170.5  930.447836267491 170.5  Z " fill-rule="nonzero" fill="#ffffff" stroke="none" />
    <path d="M 930.447836267491 170.5  C 930.447836267491 170.5  933.758679870082 170.760286446745  933.758679870082 170.760286446745  C 933.758679870082 170.760286446745  949.46971968651 195  949.46971968651 195  C 949.46971968651 195  933.758679870082 219.239713553255  933.758679870082 219.239713553255  C 933.758679870082 219.239713553255  930.447836267491 219.5  930.447836267491 219.5  C 930.447836267491 219.5  637 219.5  637 219.5  C 634.48 219.5  632.5 217.52  632.5 215  C 632.5 215  632.5 175  632.5 175  C 632.5 172.48  634.48 170.5  637 170.5  C 637 170.5  930.447836267491 170.5  930.447836267491 170.5  Z " stroke-width="1" stroke="#e4e4e4" fill="none" />
  </g>
</svg>