<?xml version="1.0" encoding="utf-8"?>
<svg version="1.1" xmlns:xlink="http://www.w3.org/1999/xlink" width="200px" height="200px" xmlns="http://www.w3.org/2000/svg">
  <g transform="matrix(1 0 0 1 -139 -874 )">
    <path d="M 239 874  C 295 874  339 918  339 974  C 339 1030  295 1074  239 1074  C 183 1074  139 1030  139 974  C 139 918  183 874  239 874  Z " fill-rule="nonzero" fill="#e9e9e9" stroke="none" />
    <path d="M 239 874.5  C 294.72 874.5  338.5 918.28  338.5 974  C 338.5 1029.72  294.72 1073.5  239 1073.5  C 183.28 1073.5  139.5 1029.72  139.5 974  C 139.5 918.28  183.28 874.5  239 874.5  Z " stroke-width="1" stroke="#ffffff" fill="none" />
  </g>
</svg>