<?xml version="1.0" encoding="utf-8"?>
<svg version="1.1" xmlns:xlink="http://www.w3.org/1999/xlink" width="150px" height="150px" xmlns="http://www.w3.org/2000/svg">
  <g transform="matrix(1 0 0 1 -164 -899 )">
    <path d="M 239 899  C 281 899  314 932  314 974  C 314 1016  281 1049  239 1049  C 197 1049  164 1016  164 974  C 164 932  197 899  239 899  Z " fill-rule="nonzero" fill="#ffffff" stroke="none" />
    <path d="M 239 899.5  C 280.72 899.5  313.5 932.28  313.5 974  C 313.5 1015.72  280.72 1048.5  239 1048.5  C 197.28 1048.5  164.5 1015.72  164.5 974  C 164.5 932.28  197.28 899.5  239 899.5  Z " stroke-width="1" stroke="#ffffff" fill="none" />
  </g>
</svg>