<?xml version="1.0" encoding="utf-8"?>
<svg version="1.1" xmlns:xlink="http://www.w3.org/1999/xlink" width="42px" height="42px" xmlns="http://www.w3.org/2000/svg">
  <g transform="matrix(1 0 0 1 -69 -256 )">
    <path d="M 11.2 15.0000000000001  C 11.2 17.171875  11.7906249999999 19.171875  12.971875 21  C 10.6093750000001 21.078125  8.67708333333334 22.0781249999999  7.17500000000001 24  L 4.24374999999993 24  C 3.04791666666667 24  2.04166666666661 23.68359375  1.22500000000002 23.05078125  C 0.408333333333303 22.41796875  0 21.4921875  0 20.2734374999999  C 0 14.7578125  0.904166666666697 12  2.71249999999998 12  C 2.79999999999997 12  3.1171875 12.1640625  3.66406249999996 12.4921875  C 4.21093750000004 12.8203125  4.921875 13.15234375  5.79687499999996 13.48828125  C 6.67187500000004 13.8242187500001  7.53958333333331 13.9921875  8.40000000000002 13.9921875  C 9.37708333333333 13.9921875  10.346875 13.8125  11.309375 13.453125  C 11.2364583333333 14.03125  11.2 14.546875  11.2 15.0000000000001  Z M 36.3234375000001 33.50390625  C 36.3744791666667 34.29296875  36.4000000000001 35.1015625  36.4000000000001 35.9296875  C 36.4000000000001 37.8046875  35.8677083333334 39.28515625  34.8031250000001 40.37109375  C 33.7385416666666 41.45703125  32.3239583333333 42  30.559375 42  L 11.440625 42  C 9.67604166666672 42  8.26145833333337 41.45703125  7.19687499999995 40.37109375  C 6.13229166666665 39.28515625  5.60000000000005 37.8046875  5.60000000000005 35.9296875  C 5.60000000000005 35.1015625  5.62552083333327 34.29296875  5.67656249999995 33.50390625  C 5.72760416666662 32.7148437499999  5.82968749999998 31.86328125  5.98281250000002 30.94921875  C 6.13593750000005 30.0351562499999  6.32916666666666 29.1874999999999  6.5625 28.40625  C 6.79583333333334 27.625  7.10937499999994 26.8632812499999  7.50312500000001 26.12109375  C 7.89687500000005 25.37890625  8.34895833333334 24.74609375  8.859375 24.22265625  C 9.36979166666666 23.69921875  9.99322916666662 23.2812499999999  10.7296875000001 22.96875  C 11.4661458333333 22.6562500000001  12.2791666666667 22.5  13.16875 22.5  C 13.3145833333333 22.5  13.628125 22.66796875  14.109375 23.00390625  C 14.590625 23.3398437500001  15.1229166666666 23.71484375  15.70625 24.1289062499999  C 16.2895833333334 24.5429687500001  17.0697916666667 24.91796875  18.046875 25.2539062500001  C 19.0239583333333 25.58984375  20.0083333333333 25.7578125  21 25.7578125  C 21.9916666666667 25.7578125  22.9760416666667 25.58984375  23.953125 25.2539062500001  C 24.9302083333333 24.91796875  25.7104166666667 24.5429687500001  26.29375 24.1289062499999  C 26.8770833333334 23.71484375  27.409375 23.3398437500001  27.890625 23.00390625  C 28.371875 22.66796875  28.6854166666667 22.5  28.83125 22.5  C 29.7208333333333 22.5  30.5338541666667 22.6562500000001  31.2703124999999 22.96875  C 32.0067708333334 23.2812499999999  32.6302083333333 23.69921875  33.140625 24.22265625  C 33.6510416666667 24.74609375  34.1031249999999 25.37890625  34.496875 26.12109375  C 34.890625 26.8632812499999  35.2041666666667 27.625  35.4375 28.40625  C 35.6708333333333 29.1874999999999  35.8640624999999 30.0351562499999  36.0171875 30.94921875  C 36.1703125 31.86328125  36.2723958333334 32.7148437499999  36.3234375000001 33.50390625  Z M 12.3593749999999 1.7578125  C 13.453125 2.9296875  13.9999999999999 4.34375  13.9999999999999 6  C 13.9999999999999 7.65625  13.453125 9.0703125  12.3593749999999 10.2421875000001  C 11.2656250000001 11.4140624999999  9.94583333333335 12  8.40000000000002 12  C 6.8541666666667 12  5.53437500000001 11.4140624999999  4.44062499999997 10.2421875000001  C 3.34687500000005 9.0703125  2.79999999999997 7.65625  2.79999999999997 6  C 2.79999999999997 4.34375  3.34687500000005 2.9296875  4.44062499999997 1.7578125  C 5.53437500000001 0.5859375  6.8541666666667 0  8.40000000000002 0  C 9.94583333333335 0  11.2656250000001 0.5859375  12.3593749999999 1.7578125  Z M 26.9390625 8.63671875  C 28.5796875 10.39453125  29.4 12.515625  29.4 15.0000000000001  C 29.4 17.4843749999999  28.5796875 19.60546875  26.9390625 21.36328125  C 25.2984375 23.1210937500001  23.3187500000001 24  21 24  C 18.6812500000001 24  16.7015625 23.1210937500001  15.0609375 21.36328125  C 13.4203125 19.60546875  12.6 17.4843749999999  12.6 15.0000000000001  C 12.6 12.515625  13.4203125 10.39453125  15.0609375 8.63671875  C 16.7015625 6.87890625  18.6812500000001 6  21 6  C 23.3187500000001 6  25.2984375 6.87890625  26.9390625 8.63671875  Z M 39.2875 12  C 41.0958333333333 12  42 14.7578125  42 20.2734374999999  C 42 21.4921875  41.5916666666667 22.41796875  40.775 23.05078125  C 39.9583333333334 23.68359375  38.9520833333333 24  37.7562499999999 24  L 34.825 24  C 33.3229166666667 22.0781249999999  31.390625 21.078125  29.028125 21  C 30.2093750000001 19.171875  30.8 17.171875  30.8 15.0000000000001  C 30.8 14.546875  30.7635416666667 14.03125  30.690625 13.453125  C 31.653125 13.8125  32.6229166666667 13.9921875  33.6 13.9921875  C 34.4604166666667 13.9921875  35.328125 13.8242187500001  36.203125 13.48828125  C 37.078125 13.15234375  37.7890625 12.8203125  38.3359375 12.4921875  C 38.8828125 12.1640625  39.2 12  39.2875 12  Z M 37.559375 1.7578125  C 38.6531249999999 2.9296875  39.2 4.34375  39.2 6  C 39.2 7.65625  38.6531249999999 9.0703125  37.559375 10.2421875000001  C 36.465625 11.4140624999999  35.1458333333333 12  33.6 12  C 32.0541666666666 12  30.734375 11.4140624999999  29.640625 10.2421875000001  C 28.546875 9.0703125  28 7.65625  28 6  C 28 4.34375  28.546875 2.9296875  29.640625 1.7578125  C 30.734375 0.5859375  32.0541666666666 0  33.6 0  C 35.1458333333333 0  36.465625 0.5859375  37.559375 1.7578125  Z " fill-rule="nonzero" fill="#bcbcbc" stroke="none" transform="matrix(1 0 0 1 69 256 )" />
  </g>
</svg>