<?xml version="1.0" encoding="utf-8"?>
<svg version="1.1" xmlns:xlink="http://www.w3.org/1999/xlink" width="38px" height="42px" xmlns="http://www.w3.org/2000/svg">
  <g transform="matrix(1 0 0 1 -198 -253 )">
    <path d="M 35.0842633928571 38.77734375  C 35.2185639880952 38.62890625  35.2857142857143 38.453125  35 38.25  L 35 12.75  C 35.2857142857143 12.546875  35.2185639880952 12.37109375  35.0842633928571 12.22265625  C 34.949962797619 12.07421875  34.7909226190476 12  34.6071428571429 12  L 11.5357142857143 12  C 11.3519345238095 12  11.1928943452381 12.07421875  11.05859375 12.22265625  C 10.9242931547619 12.37109375  10.8571428571429 12.546875  11 12.75  L 11 38.25  C 10.8571428571429 38.453125  10.9242931547619 38.62890625  11.05859375 38.77734375  C 11.1928943452381 38.92578125  11.3519345238095 39  11.5357142857143 39  L 34.6071428571429 39  C 34.7909226190476 39  34.949962797619 38.92578125  35.0842633928571 38.77734375  Z M 37.0033482142857 10.1015625  C 37.6677827380952 10.8359375  38 11.71875  38 12.75  L 38 38.25  C 38 39.28125  37.6677827380952 40.1640625  37.0033482142857 40.8984375  C 36.3389136904762 41.6328125  35.5401785714286 42  34.6071428571429 42  L 11.5357142857143 42  C 10.6026785714286 42  9.80394345238096 41.6328125  9.13950892857142 40.8984375  C 8.4750744047619 40.1640625  8.14285714285714 39.28125  8.14285714285714 38.25  L 8.14285714285714 12.75  C 8.14285714285714 11.71875  8.4750744047619 10.8359375  9.13950892857142 10.1015625  C 9.80394345238096 9.3671875  10.6026785714286 9  11.5357142857143 9  L 34.6071428571429 9  C 35.5401785714286 9  36.3389136904762 9.3671875  37.0033482142857 10.1015625  Z M 28.8604910714286 1.1015625  C 29.5249255952381 1.83593749999997  29.8571428571429 2.71875000000003  29.8571428571429 3.75  L 29.8571428571429 7.5  L 27.1428571428571 7.5  L 27.1428571428571 3.75  C 27.1428571428571 3.546875  27.0757068452381 3.37109375  26.94140625 3.22265625  C 26.8071056547619 3.07421875  26.6480654761905 3  26.4642857142857 3  L 3.39285714285714 3  C 3.20907738095238 3  3.05003720238096 3.07421875  2.91573660714286 3.22265625  C 2.78143601190476 3.37109375  2.71428571428572 3.546875  3 3.75  L 3 29.25  C 2.71428571428572 29.453125  2.78143601190476 29.62890625  2.91573660714286 29.77734375  C 3.05003720238096 29.92578125  3.20907738095238 30  3.39285714285714 30  L 6.78571428571428 30  L 6.78571428571428 33  L 3.39285714285714 33  C 2.45982142857142 33  1.6610863095238 32.6328125  0.996651785714278 31.8984375  C 0.332217261904759 31.1640625  0 30.28125  0 29.25  L 0 3.75  C 0 2.71875000000003  0.332217261904759 1.83593749999997  0.996651785714278 1.1015625  C 1.6610863095238 0.3671875  2.45982142857142 0  3.39285714285714 0  L 26.4642857142857 0  C 27.3973214285714 0  28.196056547619 0.3671875  28.8604910714286 1.1015625  Z " fill-rule="nonzero" fill="#bcbcbc" stroke="none" transform="matrix(1 0 0 1 198 253 )" />
  </g>
</svg>