<?xml version="1.0" encoding="utf-8"?>
<svg version="1.1" xmlns:xlink="http://www.w3.org/1999/xlink" width="42px" height="38px" xmlns="http://www.w3.org/2000/svg">
  <g transform="matrix(1 0 0 1 -321 -253 )">
    <path d="M 8 19  L 13.125 19  L 13.125 31.6666666666666  L 8 31.6666666666666  L 8 19  Z M 16 6.33333333333337  L 21 6.33333333333337  L 21 31.6666666666666  L 16 31.6666666666666  L 16 6.33333333333337  Z M 3 34.8333333333334  L 42 34.8333333333334  L 42 38  L 0 38  L 0 0  L 3 0  L 3 34.8333333333334  Z M 23 12.6666666666666  L 28.875 12.6666666666666  L 28.875 31.6666666666666  L 23 31.6666666666666  L 23 12.6666666666666  Z M 31 3.16666666666663  L 36 3.16666666666663  L 36 31.6666666666666  L 31 31.6666666666666  L 31 3.16666666666663  Z " fill-rule="nonzero" fill="#bcbcbc" stroke="none" transform="matrix(1 0 0 1 321 253 )" />
  </g>
</svg>