<?xml version="1.0" encoding="utf-8"?>
<svg version="1.1" xmlns:xlink="http://www.w3.org/1999/xlink" width="38px" height="36px" xmlns="http://www.w3.org/2000/svg">
  <g transform="matrix(1 0 0 1 -188 -254 )">
    <path d="M 10.1333333333333 12.8571428571429  C 10.1333333333333 14.71875  10.6677083333333 16.4330357142857  11.7364583333333 18  C 9.59895833333333 18.0669642857143  7.85069444444444 18.9241071428571  6.49166666666667 20.5714285714286  L 3.83958333333333 20.5714285714286  C 2.75763888888889 20.5714285714286  1.84722222222222 20.3002232142857  1.10833333333333 19.7578125  C 0.369444444444444 19.2154017857143  0 18.421875  0 17.3772321428571  C 0 12.6495535714286  0.818055555555555 10.2857142857143  2.45416666666667 10.2857142857143  C 2.53333333333333 10.2857142857143  2.8203125 10.4263392857143  3.31510416666667 10.7075892857143  C 3.80989583333333 10.9888392857143  4.453125 11.2734375  5.24479166666667 11.5613839285714  C 6.03645833333333 11.8493303571429  6.82152777777778 11.9933035714286  7.6 11.9933035714286  C 8.48402777777778 11.9933035714286  9.36145833333333 11.8392857142857  10.2322916666667 11.53125  C 10.1663194444444 12.0267857142857  10.1333333333333 12.46875  10.1333333333333 12.8571428571429  Z M 32.8640625 28.7176339285714  C 32.9102430555556 29.3939732142857  32.9333333333333 30.0870535714286  32.9333333333333 30.796875  C 32.9333333333333 32.4040178571429  32.4517361111111 33.6729910714286  31.4885416666667 34.6037946428571  C 30.5253472222222 35.5345982142857  29.2454861111111 36  27.6489583333333 36  L 10.3510416666667 36  C 8.75451388888889 36  7.47465277777778 35.5345982142857  6.51145833333333 34.6037946428571  C 5.54826388888889 33.6729910714286  5.06666666666667 32.4040178571429  5.06666666666667 30.796875  C 5.06666666666667 30.0870535714286  5.08975694444444 29.3939732142857  5.1359375 28.7176339285714  C 5.18211805555556 28.0412946428571  5.27447916666667 27.3113839285714  5.41302083333333 26.5279017857143  C 5.5515625 25.7444196428571  5.72638888888889 25.0178571428571  5.9375 24.3482142857143  C 6.14861111111111 23.6785714285714  6.43229166666667 23.0256696428571  6.78854166666667 22.3895089285714  C 7.14479166666667 21.7533482142857  7.55381944444444 21.2109375  8.015625 20.7622767857143  C 8.47743055555556 20.3136160714286  9.04149305555556 19.9553571428571  9.7078125 19.6875  C 10.3741319444444 19.4196428571429  11.1097222222222 19.2857142857143  11.9145833333333 19.2857142857143  C 12.0465277777778 19.2857142857143  12.3302083333333 19.4296875  12.765625 19.7176339285714  C 13.2010416666667 20.0055803571429  13.6826388888889 20.3270089285714  14.2104166666667 20.6819196428571  C 14.7381944444444 21.0368303571429  15.4440972222222 21.3582589285714  16.328125 21.6462053571429  C 17.2121527777778 21.9341517857143  18.1027777777778 22.078125  19 22.078125  C 19.8972222222222 22.078125  20.7878472222222 21.9341517857143  21.671875 21.6462053571429  C 22.5559027777778 21.3582589285714  23.2618055555556 21.0368303571429  23.7895833333333 20.6819196428571  C 24.3173611111111 20.3270089285714  24.7989583333333 20.0055803571429  25.234375 19.7176339285714  C 25.6697916666667 19.4296875  25.9534722222222 19.2857142857143  26.0854166666667 19.2857142857143  C 26.8902777777778 19.2857142857143  27.6258680555556 19.4196428571429  28.2921875 19.6875  C 28.9585069444444 19.9553571428571  29.5225694444444 20.3136160714286  29.984375 20.7622767857143  C 30.4461805555556 21.2109375  30.8552083333333 21.7533482142857  31.2114583333333 22.3895089285714  C 31.5677083333333 23.0256696428571  31.8513888888889 23.6785714285714  32.0625 24.3482142857143  C 32.2736111111111 25.0178571428571  32.4484375 25.7444196428571  32.5869791666667 26.5279017857143  C 32.7255208333333 27.3113839285714  32.8178819444444 28.0412946428571  32.8640625 28.7176339285714  Z M 11.1822916666667 1.50669642857143  C 12.171875 2.51116071428571  12.6666666666667 3.72321428571428  12.6666666666667 5.14285714285714  C 12.6666666666667 6.5625  12.171875 7.77455357142857  11.1822916666667 8.77901785714286  C 10.1927083333333 9.78348214285714  8.99861111111111 10.2857142857143  7.6 10.2857142857143  C 6.20138888888889 10.2857142857143  5.00729166666667 9.78348214285714  4.01770833333333 8.77901785714286  C 3.028125 7.77455357142857  2.53333333333333 6.5625  2.53333333333333 5.14285714285714  C 2.53333333333333 3.72321428571428  3.028125 2.51116071428571  4.01770833333333 1.50669642857143  C 5.00729166666667 0.502232142857145  6.20138888888889 0  7.6 0  C 8.99861111111111 0  10.1927083333333 0.502232142857145  11.1822916666667 1.50669642857143  Z M 24.3734375 7.40290178571428  C 25.8578125 8.90959821428572  26.6 10.7276785714286  26.6 12.8571428571429  C 26.6 14.9866071428571  25.8578125 16.8046875  24.3734375 18.3113839285714  C 22.8890625 19.8180803571429  21.0979166666667 20.5714285714286  19 20.5714285714286  C 16.9020833333333 20.5714285714286  15.1109375 19.8180803571429  13.6265625 18.3113839285714  C 12.1421875 16.8046875  11.4 14.9866071428571  11.4 12.8571428571429  C 11.4 10.7276785714286  12.1421875 8.90959821428572  13.6265625 7.40290178571428  C 15.1109375 5.89620535714286  16.9020833333333 5.14285714285714  19 5.14285714285714  C 21.0979166666667 5.14285714285714  22.8890625 5.89620535714286  24.3734375 7.40290178571428  Z M 35.5458333333333 10.2857142857143  C 37.1819444444445 10.2857142857143  38 12.6495535714286  38 17.3772321428571  C 38 18.421875  37.6305555555556 19.2154017857143  36.8916666666667 19.7578125  C 36.1527777777778 20.3002232142857  35.2423611111111 20.5714285714286  34.1604166666667 20.5714285714286  L 31.5083333333333 20.5714285714286  C 30.1493055555556 18.9241071428571  28.4010416666667 18.0669642857143  26.2635416666667 18  C 27.3322916666667 16.4330357142857  27.8666666666667 14.71875  27.8666666666667 12.8571428571429  C 27.8666666666667 12.46875  27.8336805555556 12.0267857142857  27.7677083333333 11.53125  C 28.6385416666667 11.8392857142857  29.5159722222222 11.9933035714286  30.4 11.9933035714286  C 31.1784722222222 11.9933035714286  31.9635416666667 11.8493303571429  32.7552083333333 11.5613839285714  C 33.546875 11.2734375  34.1901041666667 10.9888392857143  34.6848958333333 10.7075892857143  C 35.1796875 10.4263392857143  35.4666666666667 10.2857142857143  35.5458333333333 10.2857142857143  Z M 33.9822916666667 1.50669642857143  C 34.971875 2.51116071428571  35.4666666666667 3.72321428571428  35.4666666666667 5.14285714285714  C 35.4666666666667 6.5625  34.971875 7.77455357142857  33.9822916666667 8.77901785714286  C 32.9927083333333 9.78348214285714  31.7986111111111 10.2857142857143  30.4 10.2857142857143  C 29.0013888888889 10.2857142857143  27.8072916666667 9.78348214285714  26.8177083333333 8.77901785714286  C 25.828125 7.77455357142857  25.3333333333333 6.5625  25.3333333333333 5.14285714285714  C 25.3333333333333 3.72321428571428  25.828125 2.51116071428571  26.8177083333333 1.50669642857143  C 27.8072916666667 0.502232142857145  29.0013888888889 0  30.4 0  C 31.7986111111111 0  32.9927083333333 0.502232142857145  33.9822916666667 1.50669642857143  Z " fill-rule="nonzero" fill="#aaaaaa" stroke="none" transform="matrix(1 0 0 1 188 254 )" />
  </g>
</svg>