<?xml version="1.0" encoding="utf-8"?>
<svg version="1.1" xmlns:xlink="http://www.w3.org/1999/xlink" width="170px" height="50px" xmlns="http://www.w3.org/2000/svg">
  <g transform="matrix(1 0 0 1 -40 -270 )">
    <path d="M 190.13534075285 270.5  C 190.13534075285 270.5  193.73625238325 271.029545828  193.73625238325 271.029545828  C 193.73625238325 271.029545828  209.447007888753 295  209.447007888753 295  C 209.447007888753 295  193.73625238325 318.970454172  193.73625238325 318.970454172  C 193.73625238325 318.970454172  190.13534075285 319.5  190.13534075285 319.5  C 190.13534075285 319.5  45 319.5  45 319.5  C 42.48 319.5  40.5 317.52  40.5 315  C 40.5 315  40.5 275  40.5 275  C 40.5 272.48  42.48 270.5  45 270.5  C 45 270.5  190.13534075285 270.5  190.13534075285 270.5  Z " fill-rule="nonzero" fill="#4bc1d0" stroke="none" />
    <path d="M 190.13534075285 270.5  C 190.13534075285 270.5  193.73625238325 271.029545828  193.73625238325 271.029545828  C 193.73625238325 271.029545828  209.447007888753 295  209.447007888753 295  C 209.447007888753 295  193.73625238325 318.970454172  193.73625238325 318.970454172  C 193.73625238325 318.970454172  190.13534075285 319.5  190.13534075285 319.5  C 190.13534075285 319.5  45 319.5  45 319.5  C 42.48 319.5  40.5 317.52  40.5 315  C 40.5 315  40.5 275  40.5 275  C 40.5 272.48  42.48 270.5  45 270.5  C 45 270.5  190.13534075285 270.5  190.13534075285 270.5  Z " stroke-width="1" stroke="#4bc1d0" fill="none" />
  </g>
</svg>