<?xml version="1.0" encoding="utf-8"?>
<svg version="1.1" xmlns:xlink="http://www.w3.org/1999/xlink" width="170px" height="50px" xmlns="http://www.w3.org/2000/svg">
  <g transform="matrix(1 0 0 1 -889 -270 )">
    <path d="M 1039.13534075285 270.5  C 1039.13534075285 270.5  1042.73625238325 271.029545828  1042.73625238325 271.029545828  C 1042.73625238325 271.029545828  1058.44700788875 295  1058.44700788875 295  C 1058.44700788875 295  1042.73625238325 318.970454172  1042.73625238325 318.970454172  C 1042.73625238325 318.970454172  1039.13534075285 319.5  1039.13534075285 319.5  C 1039.13534075285 319.5  894 319.5  894 319.5  C 891.48 319.5  889.5 317.52  889.5 315  C 889.5 315  889.5 275  889.5 275  C 889.5 272.48  891.48 270.5  894 270.5  C 894 270.5  1039.13534075285 270.5  1039.13534075285 270.5  Z " fill-rule="nonzero" fill="#ffffff" stroke="none" />
    <path d="M 1039.13534075285 270.5  C 1039.13534075285 270.5  1042.73625238325 271.029545828  1042.73625238325 271.029545828  C 1042.73625238325 271.029545828  1058.44700788875 295  1058.44700788875 295  C 1058.44700788875 295  1042.73625238325 318.970454172  1042.73625238325 318.970454172  C 1042.73625238325 318.970454172  1039.13534075285 319.5  1039.13534075285 319.5  C 1039.13534075285 319.5  894 319.5  894 319.5  C 891.48 319.5  889.5 317.52  889.5 315  C 889.5 315  889.5 275  889.5 275  C 889.5 272.48  891.48 270.5  894 270.5  C 894 270.5  1039.13534075285 270.5  1039.13534075285 270.5  Z " stroke-width="1" stroke="#e4e4e4" fill="none" />
  </g>
</svg>