<?xml version="1.0" encoding="utf-8"?>
<svg version="1.1" xmlns:xlink="http://www.w3.org/1999/xlink" width="10px" height="9px" xmlns="http://www.w3.org/2000/svg">
  <g transform="matrix(1 0 0 1 -51 -802 )">
    <path d="M 56 803  C 58.24 803  60 804.54  60 806.5  C 60 808.46  58.24 810  56 810  C 53.76 810  52 808.46  52 806.5  C 52 804.54  53.76 803  56 803  Z " fill-rule="nonzero" fill="#ffffff" stroke="none" />
    <path d="M 56 803  C 58.24 803  60 804.54  60 806.5  C 60 808.46  58.24 810  56 810  C 53.76 810  52 808.46  52 806.5  C 52 804.54  53.76 803  56 803  Z " stroke-width="2" stroke="#0079fe" fill="none" />
  </g>
</svg>